{
  "accessors": [
    {
      "bufferView": 2,
      "componentType": 5126,
      "count": 1175,
      "max": [
        0.0,
        3.51175594329834,
        13.289081573486328
      ],
      "min": [
        -18.7755069732666,
        -7.668921947479248,
        0.049251001328229904
      ],
      "type": "VEC3"
    },
    {
      "bufferView": 2,
      "byteOffset": 14100,
      "componentType": 5126,
      "count": 1175,
      "max": [
        0.9985254406929016,
        0.9988852143287659,
        0.9999743700027466
      ],
      "min": [
        -0.9999076128005981,
        -0.9937110543251038,
        -0.9998531341552734
      ],
      "type": "VEC3"
    },
    {
      "bufferView": 1,
      "componentType": 5126,
      "count": 1175,
      "max": [
        0.9932860136032104,
        0.9904509782791138
      ],
      "min": [
        0.005576000083237886,
        0.005932999774813652
      ],
      "type": "VEC2"
    },
    {
      "bufferView": 0,
      "componentType": 5125,
      "count": 5127,
      "type": "SCALAR"
    },
    {
      "bufferView": 2,
      "byteOffset": 28200,
      "componentType": 5126,
      "count": 2940,
      "max": [
        18.7755069732666,
        5.327898979187012,
        13.289081573486328
      ],
      "min": [
        -2.0967209339141846,
        -8.488115310668945,
        -0.03191100060939789
      ],
      "type": "VEC3"
    },
    {
      "bufferView": 2,
      "byteOffset": 63480,
      "componentType": 5126,
      "count": 2940,
      "max": [
        0.9999076128005981,
        0.9999696016311646,
        0.9999964237213135
      ],
      "min": [
        -0.9998158812522888,
        -0.999891996383667,
        -1.0
      ],
      "type": "VEC3"
    },
    {
      "bufferView": 1,
      "byteOffset": 9400,
      "componentType": 5126,
      "count": 2940,
      "max": [
        0.9946900010108948,
        0.991582989692688
      ],
      "min": [
        0.005576000083237886,
        0.005932999774813652
      ],
      "type": "VEC2"
    },
    {
      "bufferView": 0,
      "byteOffset": 20508,
      "componentType": 5125,
      "count": 13248,
      "type": "SCALAR"
    },
    {
      "bufferView": 2,
      "byteOffset": 98760,
      "componentType": 5126,
      "count": 170,
      "max": [
        0.6755610108375549,
        -6.571174144744873,
        13.023992538452148
      ],
      "min": [
        -0.6755610108375549,
        -7.0845842361450195,
        12.467830657958984
      ],
      "type": "VEC3"
    },
    {
      "bufferView": 2,
      "byteOffset": 100800,
      "componentType": 5126,
      "count": 170,
      "max": [
        0.9999812841415405,
        0.7215837240219116,
        0.9996644854545593
      ],
      "min": [
        -0.9999812841415405,
        -0.9935632944107056,
        -0.9998996257781982
      ],
      "type": "VEC3"
    },
    {
      "bufferView": 1,
      "byteOffset": 32920,
      "componentType": 5126,
      "count": 170,
      "max": [
        0.48961499333381653,
        0.9841480255126953
      ],
      "min": [
        0.015327000059187412,
        0.026829000562429428
      ],
      "type": "VEC2"
    },
    {
      "bufferView": 0,
      "byteOffset": 73500,
      "componentType": 5125,
      "count": 936,
      "type": "SCALAR"
    }
  ],
  "asset": {
    "extras": {
      "author": "LunaEagle (https://sketchfab.com/LunaEagle)",
      "license": "CC-BY-4.0 (http://creativecommons.org/licenses/by/4.0/)",
      "source": "https://sketchfab.com/3d-models/griffin-389459fd5d4e4793b217df27678f4815",
      "title": "Griffin"
    },
    "generator": "Sketchfab-15.49.0",
    "version": "2.0"
  },
  "bufferViews": [
    {
      "buffer": 0,
      "byteLength": 77244,
      "name": "floatBufferViews",
      "target": 34963
    },
    {
      "buffer": 0,
      "byteLength": 34280,
      "byteOffset": 77244,
      "byteStride": 8,
      "name": "floatBufferViews",
      "target": 34962
    },
    {
      "buffer": 0,
      "byteLength": 102840,
      "byteOffset": 111524,
      "byteStride": 12,
      "name": "floatBufferViews",
      "target": 34962
    }
  ],
  "buffers": [
    {
      "byteLength": 214364,
      "uri": "scene.bin"
    }
  ],
  "images": [
    {
      "uri": "textures/shape1_part1.025_baseColor.png"
    },
    {
      "uri": "textures/shape2_part1.025_baseColor.png"
    }
  ],
  "materials": [
    {
      "doubleSided": true,
      "name": "shape1_part1.025",
      "pbrMetallicRoughness": {
        "baseColorTexture": {
          "index": 0
        },
        "metallicFactor": 0.0
      }
    },
    {
      "doubleSided": true,
      "name": "shape1_part2.020",
      "pbrMetallicRoughness": {
        "baseColorTexture": {
          "index": 0
        },
        "metallicFactor": 0.0
      }
    },
    {
      "doubleSided": true,
      "name": "shape2_part1.025",
      "pbrMetallicRoughness": {
        "baseColorTexture": {
          "index": 1
        },
        "metallicFactor": 0.0
      }
    }
  ],
  "meshes": [
    {
      "name": "Object_0",
      "primitives": [
        {
          "attributes": {
            "NORMAL": 1,
            "POSITION": 0,
            "TEXCOORD_0": 2
          },
          "indices": 3,
          "material": 0,
          "mode": 4
        }
      ]
    },
    {
      "name": "Object_1",
      "primitives": [
        {
          "attributes": {
            "NORMAL": 5,
            "POSITION": 4,
            "TEXCOORD_0": 6
          },
          "indices": 7,
          "material": 1,
          "mode": 4
        }
      ]
    },
    {
      "name": "Object_2",
      "primitives": [
        {
          "attributes": {
            "NORMAL": 9,
            "POSITION": 8,
            "TEXCOORD_0": 10
          },
          "indices": 11,
          "material": 2,
          "mode": 4
        }
      ]
    }
  ],
  "nodes": [
    {
      "children": [
        1
      ],
      "matrix": [
        1.0,
        0.0,
        0.0,
        0.0,
        0.0,
        2.220446049250313e-16,
        -1.0,
        0.0,
        0.0,
        1.0,
        2.220446049250313e-16,
        0.0,
        0.0,
        0.0,
        0.0,
        1.0
      ],
      "name": "Sketchfab_model"
    },
    {
      "children": [
        2,
        3,
        4
      ],
      "name": "griffin.obj.cleaner.materialmerger.gles"
    },
    {
      "mesh": 0,
      "name": "Object_2"
    },
    {
      "mesh": 1,
      "name": "Object_3"
    },
    {
      "mesh": 2,
      "name": "Object_4"
    }
  ],
  "samplers": [
    {
      "magFilter": 9729,
      "minFilter": 9987,
      "wrapS": 10497,
      "wrapT": 10497
    }
  ],
  "scene": 0,
  "scenes": [
    {
      "name": "Sketchfab_Scene",
      "nodes": [
        0
      ]
    }
  ],
  "textures": [
    {
      "sampler": 0,
      "source": 0
    },
    {
      "sampler": 0,
      "source": 1
    }
  ]
}
